<svg xmlns="http://www.w3.org/2000/svg" width="109" height="32" viewBox="0 0 109 32"><path d="M71.761 18.716c-.762 0-1.821.67-1.783 1.985l3.049-1.263c-.168-.426-.671-.722-1.266-.722zM41.075 6.082c-.516 0-.951.18-1.307.539s-.534.819-.534 1.378.179 1.018.534 1.378c.356.36.792.539 1.307.539s.951-.18 1.307-.539c.356-.36.535-.819.535-1.378s-.179-1.018-.535-1.378c-.355-.359-.792-.539-1.307-.539zM76.163 7.426c.141-.154.212-.322.212-.506s-.068-.351-.205-.502c-.136-.152-.317-.228-.541-.228h-1.15v1.468h1.122c.234-.001.421-.077.562-.232zM62.097 18.742c-1.034 0-1.899.877-1.899 2.075 0 1.186.866 2.05 1.899 2.05 1.021 0 1.821-.863 1.821-2.05 0-1.198-.8-2.075-1.821-2.075zM54.647 18.742c-1.034 0-1.926.838-1.926 2.062 0 1.211.892 2.062 1.926 2.062s1.925-.85 1.925-2.062c0-1.225-.891-2.062-1.925-2.062zM75.696 8.234h-1.217v1.576h1.244c.237 0 .43-.083.578-.249s.221-.346.221-.543-.076-.376-.229-.539c-.152-.162-.352-.245-.598-.245zM36.861 6.19h-1.976v1.783c.01.759-.144 1.372-.456 1.837h2.433v-3.62zM68.859 9.917c.516 0 .951-.18 1.307-.539s.535-.819.535-1.378-.179-1.018-.535-1.378c-.355-.36-.792-.539-1.307-.539s-.951.18-1.307.539c-.355.36-.534.819-.534 1.378s.179 1.018.534 1.378c.357.36.792.539 1.307.539zM89.584 22.014c0 .605.683.849 1.174.849.865 0 1.664-.656 1.781-1.582-.4-.193-.71-.334-1.367-.334-.736.001-1.587.297-1.587 1.068zM104.263 0h-100.253c-2.206 0-4.01 1.8-4.01 4v24c0 2.2 1.805 4 4.01 4h100.253c2.206 0 4.01-1.8 4.01-4v-24c0-2.2-1.805-4-4.01-4zm-37.167 6.22c.472-.486 1.06-.728 1.764-.728.699 0 1.286.244 1.761.731s.712 1.079.712 1.777c0 .702-.237 1.295-.709 1.78s-1.061.727-1.764.727-1.291-.242-1.764-.727c-.473-.485-.709-1.078-.709-1.78s.236-1.295.709-1.78zm-9.736-.62h3.482v4.8h-.618v-4.21h-2.245v4.21h-.618v-4.8zm-3.804 0l1.189 2.755h.026l1.162-2.755h.726l-1.821 4.049c-.251.572-.625.858-1.122.858-.148 0-.307-.035-.478-.107l.161-.57c.103.058.211.087.322.087.144 0 .254-.028.333-.083s.151-.158.219-.305l.175-.382-1.618-3.546h.726zm-8.676.61c.48-.478 1.073-.718 1.781-.718.725 0 1.315.262 1.768.785l-.431.416c-.326-.407-.773-.61-1.337-.61-.525 0-.967.177-1.327.53s-.541.816-.541 1.387c0 .572.18 1.034.541 1.387s.803.53 1.327.53c.578 0 1.071-.232 1.479-.697l.43.429c-.22.264-.495.473-.827.626s-.692.231-1.082.231c-.708 0-1.302-.239-1.781-.717s-.719-1.074-.719-1.79c0-.715.239-1.312.719-1.79zm-11.695 3.6h.471c.417-.358.62-.97.612-1.837v-2.374h3.213v4.21h.537v1.609h-.591v-1.019h-3.65v1.018h-.591v-1.608h-.001zm-6.668 6.192c0 .156-.052.31-.13.462-.132.254-.359.494-.711.694l-15.64 8.864c-.168.095-.33.162-.486.206l-.149.022-.294.037-.161-.029-.225-.051-.144-.087-.148-.09-.059-.058c-.233-.246-.371-.629-.371-1.124v-17.694c0-.145.015-.278.038-.402l.026-.113.075-.234.047-.105.128-.195.047-.063.01-.013.059-.058.008.008.217-.152.112-.042.245-.056.14-.008.286.035.14.03c.143.043.29.102.441.187l.017.007 15.64 8.864c.561.318.841.737.841 1.155v-.001l.001.003zm15.47 6.722c-.93.966-2.119 1.482-3.696 1.482-2.92 0-5.375-2.371-5.375-5.284s2.455-5.284 5.375-5.284c1.615 0 2.765.631 3.631 1.456l-1.021 1.018c-.62-.58-1.46-1.031-2.61-1.031-2.132 0-3.798 1.714-3.798 3.841s1.667 3.841 3.798 3.841c1.383 0 2.171-.554 2.675-1.057.414-.413.685-1.006.788-1.818h-3.463v-1.443h4.871c.052.258.078.567.078.902 0 1.082-.297 2.422-1.254 3.376zm.853-12.944c-.473.485-1.061.727-1.764.727s-1.291-.242-1.764-.727c-.473-.485-.709-1.078-.709-1.78s.236-1.295.709-1.78c.472-.486 1.06-.728 1.764-.728.699 0 1.286.244 1.761.731s.712 1.079.712 1.777c-.001.702-.237 1.295-.709 1.78zm4.337 14.426c-1.886 0-3.424-1.443-3.424-3.402 0-1.972 1.537-3.402 3.424-3.402s3.424 1.43 3.424 3.402c0 1.958-1.537 3.402-3.424 3.402zm3.893-13.806h-.618v-4.21h-1.344v-.59h3.307v.59h-1.344v4.21zm3.577 13.806c-1.886 0-3.424-1.443-3.424-3.402 0-1.972 1.537-3.402 3.424-3.402s3.424 1.43 3.424 3.402c0 1.958-1.537 3.402-3.424 3.402zm10.59-.489c0 2.514-1.486 3.544-3.243 3.544-1.654 0-2.649-1.108-3.024-2.01l1.305-.542c.233.554.801 1.211 1.719 1.211 1.124 0 1.822-.696 1.822-1.998v-.49h-.051c-.336.413-.982.774-1.796.774-1.705 0-3.269-1.482-3.269-3.39 0-1.92 1.563-3.415 3.269-3.415.814 0 1.46.361 1.796.761h.051v-.554h1.421v6.109zm.349-13.317h-.619v-2.166h-2.406v2.166h-.618v-4.8h.618v2.058h2.406v-2.058h.619v4.8zm2.183 13.6h-1.499v-10.002h1.499v10.002zm4.108-1.134c.763 0 1.292-.374 1.679-.941l1.163.774c-.375.554-1.279 1.508-2.842 1.508-1.939 0-3.385-1.495-3.385-3.402 0-2.023 1.46-3.402 3.217-3.402 1.77 0 2.636 1.405 2.92 2.165l.155.386-4.561 1.882c.35.683.893 1.031 1.655 1.031zm4.844-12.855c-.289.259-.63.389-1.025.389h-1.834v-4.8h1.74c.377 0 .703.124.978.372s.414.56.414.935c0 .228-.059.43-.179.603-.118.174-.277.306-.474.396v.026c.237.081.432.219.585.416s.229.425.229.684c0 .393-.145.719-.434.978zm4.93 10.2h-2.09v3.789h-1.497v-10.001h3.586c1.659 0 3.289 1.198 3.289 3.106s-1.63 3.106-3.288 3.106zm5.611 3.789h-1.497v-10.001h1.497v10.001zm6.72-.017h-1.444v-.772h-.051c-.348.527-.903.978-1.909.978-1.316 0-2.489-.862-2.489-2.2 0-1.466 1.457-2.252 2.89-2.252.71 0 1.29.231 1.561.386v-.103c-.013-.823-.8-1.286-1.574-1.286-.555 0-1.084.18-1.367.734l-1.329-.554c.464-1.055 1.586-1.531 2.67-1.531 1.716 0 3.044.99 3.044 2.766v3.835h-.001zm2.812 3.05h-1.561l1.522-3.371-2.67-6.06h1.612l1.78 4.336h.051l1.716-4.336h1.664l-4.114 9.431zM47.177 18.742c-1.034 0-1.926.838-1.926 2.062 0 1.211.892 2.062 1.926 2.062s1.925-.85 1.925-2.062c0-1.225-.892-2.062-1.925-2.062zM81.689 15.391h-2.129v3.428h2.129c1.119 0 1.754-.939 1.754-1.714 0-.79-.635-1.714-1.754-1.714z"/><path fill="#fff" d="M97.529 21.938h-.051l-1.781-4.336h-1.612l2.67 6.06-1.521 3.371h1.561l4.114-9.431h-1.664zM90.938 17.383c-1.084 0-2.206.476-2.67 1.531l1.329.554c.284-.554.812-.734 1.367-.734.774 0 1.561.463 1.574 1.286v.103c-.271-.154-.852-.386-1.561-.386-1.432 0-2.89.785-2.89 2.252 0 1.338 1.174 2.2 2.489 2.2 1.006 0 1.561-.45 1.909-.978h.051v.772h1.444v-3.834c0-1.777-1.328-2.767-3.044-2.767zm-.18 5.481c-.49 0-1.174-.244-1.174-.849 0-.772.851-1.068 1.586-1.068.658 0 .967.142 1.367.334-.116.926-.916 1.582-1.78 1.582zM66.269 13.998h1.499v10.002h-1.499v-10.002zM54.647 17.402c-1.886 0-3.424 1.43-3.424 3.402 0 1.959 1.537 3.402 3.424 3.402s3.424-1.443 3.424-3.402c0-1.972-1.537-3.402-3.424-3.402zm0 5.464c-1.034 0-1.926-.85-1.926-2.062 0-1.225.892-2.062 1.926-2.062s1.925.838 1.925 2.062c0 1.212-.891 2.062-1.925 2.062zM63.815 18.162h-.051c-.336-.399-.982-.761-1.796-.761-1.705 0-3.269 1.495-3.269 3.415 0 1.907 1.563 3.39 3.269 3.39.814 0 1.46-.361 1.796-.774h.051v.49c0 1.302-.698 1.998-1.822 1.998-.917 0-1.486-.658-1.719-1.211l-1.305.542c.375.902 1.37 2.01 3.024 2.01 1.757 0 3.243-1.031 3.243-3.544v-6.109h-1.421v.554zm-1.718 4.704c-1.034 0-1.899-.863-1.899-2.05 0-1.198.866-2.075 1.899-2.075 1.021 0 1.821.877 1.821 2.075 0 1.186-.8 2.05-1.821 2.05zM81.651 13.999h-3.586v10.001h1.496v-3.789h2.09c1.659 0 3.289-1.198 3.289-3.106s-1.63-3.106-3.289-3.106zm.038 4.82h-2.129v-3.428h2.129c1.119 0 1.754.924 1.754 1.714 0 .774-.635 1.714-1.754 1.714zM74.63 19.566c-.284-.761-1.15-2.165-2.92-2.165-1.757 0-3.217 1.379-3.217 3.402 0 1.907 1.447 3.402 3.385 3.402 1.563 0 2.468-.954 2.842-1.508l-1.163-.774c-.387.567-.918.941-1.679.941s-1.305-.348-1.654-1.031l4.561-1.882-.156-.386zm-4.652 1.135c-.038-1.314 1.021-1.985 1.783-1.985.594 0 1.099.296 1.266.722l-3.049 1.263zM85.765 13.999h1.497v10.001h-1.497v-10.001zM38.292 18.446v1.443h3.463c-.103.812-.375 1.405-.788 1.818-.504.502-1.292 1.057-2.675 1.057-2.132 0-3.798-1.714-3.798-3.841s1.667-3.841 3.798-3.841c1.15 0 1.99.451 2.61 1.031l1.021-1.018c-.865-.825-2.015-1.456-3.631-1.456-2.92 0-5.375 2.371-5.375 5.284s2.455 5.284 5.375 5.284c1.577 0 2.765-.515 3.696-1.482.956-.954 1.254-2.294 1.254-3.377 0-.335-.026-.644-.078-.902l-4.871.001zM47.177 17.402c-1.886 0-3.424 1.43-3.424 3.402 0 1.959 1.537 3.402 3.424 3.402s3.424-1.443 3.424-3.402c0-1.972-1.537-3.402-3.424-3.402zm0 5.464c-1.034 0-1.926-.85-1.926-2.062 0-1.225.892-2.062 1.926-2.062s1.925.838 1.925 2.062c0 1.212-.892 2.062-1.925 2.062z"/><path d="M8.185 6.302l.128-.195-.128.195zM8.185 6.302l.128-.195-.128.195zM7.999 7.154c0-.145.015-.277.038-.402-.023.125-.038.257-.038.402zM7.999 7.154c0-.145.015-.277.038-.402-.023.125-.038.257-.038.402zM8.429 25.912l9.936-9.911-9.929-9.903c-.27.242-.439.637-.439 1.174v17.459c0 .495.138.878.371 1.124l.06.057zM8.429 25.912l9.936-9.911-9.929-9.903c-.27.242-.439.637-.439 1.174v17.459c0 .495.138.878.371 1.124l.06.057zM8.369 6.03l-.01.013.012-.01-.002-.003zM8.369 6.03l-.01.013.012-.01-.002-.003zM8.063 6.639l.075-.234-.075.234zM8.063 6.639l.075-.234-.075.234zM8.436 5.98l-.008-.008-.059.058.047-.033.021-.018zM8.436 5.98l-.008-.008-.059.058.047-.033.021-.018zM25.677 17.156c.351-.198.579-.439.711-.693-.132.254-.36.494-.711.693zM25.677 17.156c.351-.198.579-.439.711-.693-.132.254-.36.494-.711.693zM25.677 14.962l-3.999-2.266-3.312 3.305 3.312 3.305 3.999-2.266c.508-.288.793-.659.841-1.038v-.002c-.047-.379-.333-.75-.841-1.038zM25.677 14.962l-3.999-2.266-3.312 3.305 3.312 3.305 3.999-2.266c.508-.288.793-.659.841-1.038v-.002c-.047-.379-.333-.75-.841-1.038zM9.107 26.285l-.161-.029.161.029zM9.107 26.285l-.161-.029.161.029zM8.501 25.956c.375.283.921.295 1.534-.053l11.566-6.555-3.237-3.23-9.863 9.838zM8.501 25.956c.375.283.921.295 1.534-.053l11.566-6.555-3.237-3.23-9.863 9.838zM8.72 26.205l-.144-.087.144.087zM8.72 26.205l-.144-.087.144.087zM9.55 26.226l-.149.022.149-.022zM9.55 26.226l-.149.022.149-.022zM8.429 25.912l.073.044 9.863-9.838v-.117l-9.936 9.911zM8.429 25.912l.073.044 9.863-9.838v-.117l-9.936 9.911zM8.429 25.912l.073.044 9.863-9.838v-.117l-9.936 9.911zM21.602 19.348l.075-.042-3.313-3.305v.117zM21.602 19.348l.075-.042-3.313-3.305v.117zM21.602 19.348l.075-.042-3.313-3.305v.117zM9.437 5.758l.14.03-.14-.03zM9.437 5.758l.14.03-.14-.03zM9.012 5.73l.14-.008-.14.008zM9.012 5.73l.14-.008-.14.008zM8.655 5.828l.112-.042-.112.042zM8.655 5.828l.112-.042-.112.042zM21.603 12.654l-11.568-6.555c-.614-.348-1.161-.337-1.535-.054l9.864 9.839 3.239-3.23zM21.603 12.654l-11.568-6.555c-.614-.348-1.161-.337-1.535-.054l9.864 9.839 3.239-3.23zM21.752 12.622l-11.717-6.64-.017-.007.017.007 11.717 6.64zM21.752 12.622l-11.717-6.64-.017-.007.017.007 11.717 6.64zM8.416 5.998l-.047.033.002.002.044-.035zM8.416 5.998l-.047.033.002.002.044-.035zM8.416 5.998l-.047.033.002.002.044-.035zM8.501 6.045l-.065.053 9.928 9.903v-.117l-9.863-9.839zM8.501 6.045l-.065.053 9.928 9.903v-.117l-9.863-9.839zM8.501 6.045l-.065.053 9.928 9.903v-.117l-9.863-9.839zM18.365 15.884v.117l3.313-3.305-.075-.042zM18.365 15.884v.117l3.313-3.305-.075-.042zM18.365 15.884v.117l3.313-3.305-.075-.042zM9.4 26.249l-.294.037.294-.037z"/><path opacity=".2" d="M9.4 26.249l-.294.037.294-.037z"/><path d="M10.036 26.02c-.168.095-.33.162-.486.206.156-.044.318-.111.486-.206z"/><path opacity=".2" d="M10.036 26.02c-.168.095-.33.162-.486.206.156-.044.318-.111.486-.206z"/><path d="M8.946 26.257l-.225-.051.225.051z"/><path opacity=".2" d="M8.946 26.257l-.225-.051.225.051z"/><path d="M8.428 26.029l.148.09-.139-.098-.009.009z"/><path opacity=".2" d="M8.428 26.029l.148.09-.139-.098-.009.009z"/><path d="M8.37 25.971l.059.058.009-.009-.068-.049zM8.37 25.971l.059.058.009-.009-.068-.049z"/><path opacity=".2" d="M8.37 25.971l.059.058.009-.009-.068-.049z"/><path d="M10.036 25.903c-.614.348-1.16.335-1.534.053l-.064.064.139.098.144.087.225.051.161.029.294-.037.149-.022c.156-.044.318-.111.486-.206l11.641-6.598-.075-.074-11.566 6.555zM10.036 25.903c-.614.348-1.16.335-1.534.053l-.064.064.139.098.144.087.225.051.161.029.294-.037.149-.022c.156-.044.318-.111.486-.206l11.641-6.598-.075-.074-11.566 6.555z"/><path opacity=".2" d="M10.036 25.903c-.614.348-1.16.335-1.534.053l-.064.064.139.098.144.087.225.051.161.029.294-.037.149-.022c.156-.044.318-.111.486-.206l11.641-6.598-.075-.074-11.566 6.555z"/><path d="M8.37 25.971l.068.049.064-.064-.073-.044-.059.059zM8.37 25.971l.068.049.064-.064-.073-.044-.059.059zM8.37 25.971l.068.049.064-.064-.073-.044-.059.059z"/><path opacity=".2" d="M8.37 25.971l.068.049.064-.064-.073-.044-.059.059z"/><path d="M21.678 19.306l-.075.042.075.074.075-.042zM21.678 19.306l-.075.042.075.074.075-.042zM21.678 19.306l-.075.042.075.074.075-.042z"/><path opacity=".2" d="M21.678 19.306l-.075.042.075.074.075-.042z"/><path d="M8.369 25.971c-.233-.246-.371-.628-.371-1.124v.001c.001.495.139.877.371 1.123z"/><path opacity=".12" d="M8.369 25.971c-.233-.246-.371-.628-.371-1.124v.001c.001.495.139.877.371 1.123z"/><path d="M8.369 25.971h.001zM8.369 25.971h.001z"/><path opacity=".12" d="M8.369 25.971h.001z"/><path d="M8.429 25.912l-.059-.057c-.233-.246-.371-.629-.371-1.124v.117c0 .496.138.878.371 1.124l.059-.06zM8.429 25.912l-.059-.057c-.233-.246-.371-.629-.371-1.124v.117c0 .496.138.878.371 1.124l.059-.06z"/><path opacity=".12" d="M8.429 25.912l-.059-.057c-.233-.246-.371-.629-.371-1.124v.117c0 .496.138.878.371 1.124l.059-.06z"/><path d="M8.429 25.912l-.06.059h.001zM8.429 25.912l-.06.059h.001zM8.429 25.912l-.06.059h.001z"/><path opacity=".12" d="M8.429 25.912l-.06.059h.001z"/><path d="M26.517 16.001c0 .157-.052.311-.131.462.079-.15.131-.305.131-.462z"/><path opacity=".12" d="M26.517 16.001c0 .157-.052.311-.131.462.079-.15.131-.305.131-.462z"/><path d="M25.677 17.039l-3.999 2.266.075.074 3.924-2.224c.351-.199.579-.439.711-.693.078-.151.13-.305.13-.462-.047.378-.333.75-.841 1.038zM25.677 17.039l-3.999 2.266.075.074 3.924-2.224c.351-.199.579-.439.711-.693.078-.151.13-.305.13-.462-.047.378-.333.75-.841 1.038z"/><path opacity=".12" d="M25.677 17.039l-3.999 2.266.075.074 3.924-2.224c.351-.199.579-.439.711-.693.078-.151.13-.305.13-.462-.047.378-.333.75-.841 1.038z"/><path d="M21.752 19.38l-.075-.074zM21.752 19.38l-.075-.074zM21.752 19.38l-.075-.074z"/><path opacity=".12" d="M21.752 19.38l-.075-.074z"/><path d="M25.677 14.846c.56.318.841.736.841 1.154v.001c0-.418-.28-.838-.841-1.155z"/><path fill="#fff" opacity=".25" d="M25.677 14.846c.56.318.841.736.841 1.154v.001c0-.418-.28-.838-.841-1.155z"/><path d="M8.655 5.828l-.217.152.002.002.216-.154z"/><path fill="#fff" opacity=".25" d="M8.655 5.828l-.217.152.002.002.216-.154z"/><path d="M9.152 5.722l.286.035-.286-.035z"/><path fill="#fff" opacity=".25" d="M9.152 5.722l.286.035-.286-.035z"/><path d="M8.036 6.752l.026-.113-.026.113z"/><path fill="#fff" opacity=".25" d="M8.036 6.752l.026-.113-.026.113z"/><path d="M8.138 6.406l.047-.105-.047.105z"/><path fill="#fff" opacity=".25" d="M8.138 6.406l.047-.105-.047.105z"/><path d="M8.767 5.786l.245-.056-.245.056z"/><path fill="#fff" opacity=".25" d="M8.767 5.786l.245-.056-.245.056z"/><path d="M8.313 6.106l.047-.063-.047.063z"/><path fill="#fff" opacity=".25" d="M8.313 6.106l.047-.063-.047.063z"/><path d="M9.578 5.787c.143.043.29.102.441.187-.152-.085-.298-.145-.441-.187z"/><path fill="#fff" opacity=".25" d="M9.578 5.787c.143.043.29.102.441.187-.152-.085-.298-.145-.441-.187z"/><path d="M8.438 5.982l-.002-.002-.021.017.022-.015zM8.438 5.982l-.002-.002-.021.017.022-.015z"/><path fill="#fff" opacity=".25" d="M8.438 5.982l-.002-.002-.021.017.022-.015z"/><path d="M8.436 6.098l-.064-.064-.012.01-.047.063-.128.195-.047.105-.075.234-.026.113c-.022.124-.038.257-.038.402v.117c0-.537.168-.932.438-1.174zM8.436 6.098l-.064-.064-.012.01-.047.063-.128.195-.047.105-.075.234-.026.113c-.022.124-.038.257-.038.402v.117c0-.537.168-.932.438-1.174z"/><path fill="#fff" opacity=".25" d="M8.436 6.098l-.064-.064-.012.01-.047.063-.128.195-.047.105-.075.234-.026.113c-.022.124-.038.257-.038.402v.117c0-.537.168-.932.438-1.174z"/><path d="M25.677 14.846l-3.924-2.224-.075.074 3.999 2.266c.508.288.793.658.841 1.038-.001-.419-.281-.838-.841-1.154zM25.677 14.846l-3.924-2.224-.075.074 3.999 2.266c.508.288.793.658.841 1.038-.001-.419-.281-.838-.841-1.154z"/><path fill="#fff" opacity=".25" d="M25.677 14.846l-3.924-2.224-.075.074 3.999 2.266c.508.288.793.658.841 1.038-.001-.419-.281-.838-.841-1.154z"/><path d="M8.501 6.045c.375-.282.921-.294 1.535.054l11.567 6.555.075-.074.075.042-11.716-6.64-.017-.007c-.152-.085-.299-.145-.441-.187l-.14-.03-.286-.035-.14.008-.245.056-.112.042-.217.154.063.062zM8.501 6.045c.375-.282.921-.294 1.535.054l11.567 6.555.075-.074.075.042-11.716-6.64-.017-.007c-.152-.085-.299-.145-.441-.187l-.14-.03-.286-.035-.14.008-.245.056-.112.042-.217.154.063.062z"/><path fill="#fff" opacity=".25" d="M8.501 6.045c.375-.282.921-.294 1.535.054l11.567 6.555.075-.074.075.042-11.716-6.64-.017-.007c-.152-.085-.299-.145-.441-.187l-.14-.03-.286-.035-.14.008-.245.056-.112.042-.217.154.063.062z"/><path d="M8.438 5.982l-.022.015-.044.036.064.064.065-.053-.063-.062zM8.438 5.982l-.022.015-.044.036.064.064.065-.053-.063-.062zM8.438 5.982l-.022.015-.044.036.064.064.065-.053-.063-.062z"/><path fill="#fff" opacity=".25" d="M8.438 5.982l-.022.015-.044.036.064.064.065-.053-.063-.062z"/><path d="M21.603 12.654l.075.042.075-.074-.075-.042zM21.603 12.654l.075.042.075-.074-.075-.042zM21.603 12.654l.075.042.075-.074-.075-.042z"/><path fill="#fff" opacity=".25" d="M21.603 12.654l.075.042.075-.074-.075-.042z"/><path fill="#fff" d="M33.776 10.4h3.65v1.018h.591v-1.609h-.537v-4.21h-3.213v2.374c.009.866-.195 1.479-.612 1.837h-.471v1.609h.591v-1.019h.001zm1.11-2.426v-1.784h1.976v3.62h-2.433c.313-.464.465-1.077.456-1.836zM41.075 5.493c-.703 0-1.291.242-1.764.728s-.709 1.078-.709 1.78.236 1.295.709 1.78c.472.485 1.06.727 1.764.727s1.291-.242 1.764-.727c.472-.485.709-1.078.709-1.78 0-.698-.237-1.29-.712-1.777s-1.062-.731-1.761-.731zm1.307 3.885c-.355.36-.792.539-1.307.539s-.951-.18-1.307-.539c-.355-.36-.534-.819-.534-1.378s.179-1.018.534-1.378c.356-.36.792-.539 1.307-.539s.951.18 1.307.539c.356.36.535.819.535 1.378s-.178 1.018-.535 1.378zM46.661 10.507c.389 0 .75-.077 1.082-.231s.607-.363.827-.626l-.43-.429c-.408.465-.901.697-1.479.697-.525 0-.967-.177-1.327-.53s-.541-.816-.541-1.387c0-.572.18-1.034.541-1.387s.803-.53 1.327-.53c.564 0 1.011.203 1.337.61l.431-.416c-.453-.523-1.043-.785-1.768-.785-.708 0-1.302.239-1.781.718-.48.477-.719 1.074-.719 1.789s.239 1.312.719 1.79 1.073.718 1.781.718zM52.415 5.6h-3.307v.59h1.344v4.21h.618v-4.21h1.344zM54.274 9.529c-.067.147-.14.25-.219.305s-.189.083-.333.083c-.112 0-.219-.029-.322-.087l-.161.57c.171.071.33.107.478.107.497 0 .87-.286 1.122-.858l1.821-4.05h-.726l-1.162 2.755h-.026l-1.189-2.755h-.726l1.619 3.546-.175.382zM57.978 6.19h2.245v4.21h.618v-4.8h-3.482v4.8h.618zM64.968 7.658h-2.406v-2.058h-.618v4.8h.618v-2.166h2.406v2.166h.618v-4.8h-.618zM68.859 10.507c.703 0 1.291-.242 1.764-.727s.709-1.078.709-1.78c0-.698-.237-1.29-.712-1.777s-1.062-.731-1.761-.731c-.703 0-1.291.242-1.764.728s-.709 1.078-.709 1.78.236 1.295.709 1.78c.472.485 1.061.727 1.764.727zm-1.307-3.885c.356-.36.792-.539 1.307-.539s.951.18 1.307.539c.356.36.535.819.535 1.378s-.179 1.018-.535 1.378c-.355.36-.792.539-1.307.539s-.951-.18-1.307-.539c-.355-.36-.534-.819-.534-1.378s.179-1.018.534-1.378zM76.341 7.933v-.026c.197-.09.355-.221.474-.396s.179-.375.179-.603c0-.375-.138-.686-.414-.935s-.602-.372-.978-.372h-1.74v4.8h1.834c.395 0 .736-.13 1.025-.389s.434-.586.434-.978c0-.259-.077-.487-.229-.684s-.348-.335-.585-.416zm-1.862-1.743h1.15c.224 0 .404.076.541.228s.205.319.205.502-.071.352-.212.506c-.141.154-.328.231-.561.231h-1.122v-1.467h-.001zm1.822 3.372c-.148.166-.341.249-.578.249h-1.244v-1.576h1.217c.247 0 .447.082.598.245s.229.343.229.539c0 .197-.074.378-.221.543z"/><path d="M108.273 28.792c0 1.772-1.394 3.208-3.117 3.208h-102.033c-1.724 0-3.122-1.436-3.122-3.208v-25.581c0-1.771 1.399-3.211 3.122-3.211h102.032c1.725 0 3.118 1.44 3.118 3.211l.001 25.581z"/><path fill="#fff" d="M24.163 15.827c-.023-2.578 2.117-3.833 2.214-3.891-1.212-1.762-3.09-2.003-3.75-2.022-1.578-.166-3.108.942-3.911.942-.82 0-2.057-.926-3.391-.898-1.716.026-3.322 1.018-4.203 2.557-1.817 3.138-.462 7.75 1.279 10.287.871 1.242 1.889 2.63 3.221 2.581 1.303-.054 1.79-.829 3.363-.829 1.558 0 2.015.829 3.374.798 1.399-.022 2.279-1.248 3.12-2.502 1.007-1.424 1.411-2.826 1.427-2.898-.033-.011-2.716-1.033-2.743-4.123zM21.597 8.245c.701-.874 1.181-2.064 1.047-3.271-1.015.045-2.283.7-3.014 1.555-.646.754-1.224 1.989-1.075 3.15 1.14.085 2.31-.574 3.041-1.434zM39.905 20.764l-.902-2.78c-.095-.284-.274-.953-.538-2.006h-.032c-.105.453-.274 1.122-.507 2.006l-.886 2.78h2.866zm3.12 4.439h-1.821l-.998-3.127h-3.468l-.95 3.127h-1.773l3.436-10.646h2.122l3.453 10.646zM50.118 21.333c0-.747-.168-1.363-.507-1.848-.37-.506-.866-.758-1.489-.758-.422 0-.805.141-1.148.418-.343.28-.568.646-.673 1.098-.053.211-.079.384-.079.52v1.28c0 .558.172 1.03.515 1.414s.789.577 1.338.577c.644 0 1.145-.248 1.504-.742s.539-1.148.539-1.959zm1.742-.063c0 1.306-.354 2.338-1.061 3.095-.634.674-1.42 1.011-2.36 1.011-1.014 0-1.742-.363-2.185-1.09h-.032v4.044h-1.71v-8.278c0-.821-.022-1.663-.063-2.527h1.504l.095 1.217h.032c.57-.917 1.436-1.374 2.597-1.374.908 0 1.666.358 2.272 1.074.608.717.911 1.659.911 2.828zM58.97 21.333c0-.747-.169-1.363-.508-1.848-.37-.506-.865-.758-1.488-.758-.423 0-.805.141-1.148.418-.343.28-.567.646-.672 1.098-.052.211-.079.384-.079.52v1.28c0 .558.172 1.03.513 1.414.343.384.789.577 1.339.577.644 0 1.145-.248 1.504-.742s.539-1.148.539-1.959zm1.742-.063c0 1.306-.354 2.338-1.062 3.095-.633.674-1.42 1.011-2.359 1.011-1.014 0-1.742-.363-2.185-1.09h-.032v4.044h-1.71v-8.278c0-.821-.022-1.663-.063-2.527h1.504l.095 1.217h.032c.569-.917 1.435-1.374 2.597-1.374.907 0 1.665.358 2.273 1.074.606.717.91 1.659.91 2.828zM70.609 22.218c0 .906-.315 1.642-.948 2.211-.695.622-1.663.932-2.907.932-1.148 0-2.069-.221-2.766-.663l.396-1.422c.751.453 1.574.68 2.472.68.644 0 1.145-.146 1.505-.435.359-.29.537-.678.537-1.163 0-.432-.148-.796-.444-1.091-.294-.295-.786-.57-1.472-.823-1.869-.695-2.802-1.714-2.802-3.053 0-.875.327-1.593.982-2.151.653-.559 1.524-.838 2.613-.838.971 0 1.778.169 2.422.506l-.427 1.39c-.602-.326-1.282-.49-2.043-.49-.602 0-1.072.148-1.408.442-.285.263-.427.584-.427.964 0 .421.163.769.49 1.042.285.253.802.526 1.553.822.918.369 1.593.8 2.027 1.294.432.493.648 1.11.648 1.846zM76.263 18.806h-1.885v3.727c0 .948.332 1.422.998 1.422.306 0 .559-.026.76-.079l.047 1.295c-.337.126-.78.189-1.33.189-.675 0-1.203-.206-1.584-.616-.379-.411-.57-1.101-.57-2.07v-3.87h-1.123v-1.28h1.123v-1.406l1.679-.506v1.911h1.885v1.282zM82.992 21.357c0-.708-.152-1.315-.459-1.822-.359-.613-.871-.918-1.535-.918-.687 0-1.209.306-1.568.918-.307.507-.459 1.124-.459 1.854 0 .708.152 1.315.459 1.821.37.613.886.918 1.553.918.653 0 1.165-.312 1.535-.934.315-.516.474-1.13.474-1.837zm1.775-.055c0 1.18-.338 2.149-1.014 2.906-.708.78-1.648 1.169-2.82 1.169-1.129 0-2.028-.374-2.699-1.121s-1.006-1.69-1.006-2.827c0-1.19.345-2.164 1.037-2.922.691-.758 1.623-1.138 2.794-1.138 1.129 0 2.038.374 2.724 1.122.656.726.983 1.662.983 2.81zM90.325 19.026c-.169-.031-.35-.047-.539-.047-.602 0-1.067.226-1.394.68-.285.4-.427.906-.427 1.516v4.028h-1.709l.016-5.259c0-.885-.022-1.69-.064-2.417h1.489l.063 1.469h.047c.18-.505.465-.911.855-1.216.381-.274.792-.411 1.236-.411.158 0 .301.011.427.031v1.626zM96.341 20.559c.011-.506-.1-.942-.332-1.311-.296-.474-.751-.711-1.363-.711-.559 0-1.014.231-1.361.695-.285.369-.454.811-.506 1.326l3.562.001zm1.631.443c0 .306-.02.563-.063.774h-5.13c.02.758.268 1.338.744 1.738.432.358.991.537 1.678.537.76 0 1.452-.121 2.076-.363l.268 1.184c-.728.317-1.588.474-2.58.474-1.193 0-2.13-.35-2.812-1.05-.68-.7-1.021-1.64-1.021-2.819 0-1.158.317-2.122.951-2.89.664-.821 1.562-1.231 2.691-1.231 1.109 0 1.949.41 2.519 1.231.452.652.678 1.458.678 2.416zM34.827 5.818c.182-.109.387-.2.618-.275s.501-.113.813-.113c.503 0 .899.119 1.189.357s.435.558.435.962c0 .321-.097.59-.291.807s-.443.362-.743.434v.023c.166.026.323.071.471.136s.278.151.389.26c.111.109.2.235.265.381s.097.305.097.482c0 .29-.059.533-.176.73s-.269.357-.459.482c-.188.124-.4.214-.634.267s-.467.082-.7.082c-.249 0-.496-.026-.739-.078s-.469-.137-.677-.256l.21-.644c.135.067.309.132.521.194s.427.093.646.093c.358 0 .634-.08.828-.24s.292-.375.292-.644c0-.182-.039-.33-.117-.446s-.18-.208-.304-.276c-.124-.067-.263-.114-.416-.139s-.305-.039-.455-.039h-.35v-.638h.35c.16 0 .31-.02.448-.062.137-.041.257-.099.358-.174s.18-.165.237-.268c.056-.103.085-.22.085-.35 0-.233-.083-.415-.249-.547s-.389-.198-.669-.198c-.192 0-.384.031-.576.093s-.363.13-.514.202l-.184-.596zM41.392 8.869c-.469 0-.819.059-1.048.178s-.344.314-.344.582c0 .197.054.344.162.442s.245.147.411.147c.108 0 .211-.019.31-.058s.184-.092.258-.159c.075-.067.136-.149.183-.245s.069-.198.069-.306v-.582zm.117 1.877l-.062-.434h-.023c-.253.346-.622.52-1.104.52-.172 0-.326-.029-.467-.086s-.262-.134-.366-.233c-.104-.098-.184-.214-.241-.35s-.085-.282-.085-.442c0-.47.192-.824.576-1.059s.928-.353 1.634-.353v-.07c0-.497-.261-.745-.784-.745-.373 0-.702.094-.986.279l-.171-.55c.347-.217.78-.326 1.297-.326.989 0 1.484.52 1.484 1.56v1.389c0 .388.018.688.055.9h-.755v-.001zM46.263 6.975v.69h-1.572v3.081h-.84v-3.771zM50.215 8.846c0-.186-.022-.358-.067-.516s-.109-.292-.194-.403c-.085-.111-.189-.199-.311-.264s-.258-.097-.409-.097c-.119 0-.236.026-.35.078s-.214.122-.299.21c-.086.088-.154.194-.206.318s-.079.256-.079.396v.629c0 .139.022.269.067.388s.106.222.186.31.176.157.288.206c.111.05.234.074.369.074.317 0 .563-.12.739-.361s.266-.564.266-.967zm.855-.032c0 .3-.042.574-.124.822s-.198.461-.346.636c-.148.176-.324.314-.529.411s-.431.148-.681.148c-.498 0-.856-.178-1.074-.535h-.016v1.986h-.841v-4.066l-.008-.61-.022-.633h.739l.047.598h.016c.28-.45.705-.675 1.276-.675.222 0 .429.046.618.139s.354.224.494.392.25.37.33.606c.08.236.12.496.12.781zM55.584 6.975l-.958 2.615c-.228.621-.45 1.129-.665 1.525s-.421.684-.618.866c-.29.258-.599.417-.926.473l-.202-.706c.217-.057.425-.168.622-.334s.355-.372.475-.621l.062-.17-.047-.178-1.37-3.469h.926l.716 2.103.109.334.117.411h.016l.085-.314.124-.438.638-2.095.895-.001zM57.039 8.542h.388c.285 0 .506-.051.661-.155s.233-.23.233-.381c0-.155-.066-.279-.199-.372-.132-.093-.315-.14-.549-.14-.151 0-.302.025-.454.074-.153.05-.294.11-.424.182l-.217-.542c.217-.118.434-.2.65-.244.215-.044.431-.066.649-.066.172 0 .345.017.518.05s.327.09.462.17.246.185.33.314c.086.13.128.29.128.482 0 .119-.023.224-.071.314-.046.09-.108.17-.186.24s-.164.127-.26.17l-.291.098v.023c.123.016.245.047.362.094s.221.107.315.182c.092.075.168.166.225.271.056.106.084.226.084.361 0 .222-.053.409-.163.558-.108.15-.248.269-.417.357-.168.088-.354.151-.556.19s-.399.058-.59.058c-.233 0-.465-.025-.692-.074-.229-.05-.434-.126-.616-.229l.219-.551c.135.073.288.134.462.182s.351.074.533.074c.285 0 .504-.055.658-.166.152-.111.229-.25.229-.415 0-.109-.025-.2-.077-.275s-.125-.136-.217-.182c-.094-.046-.202-.079-.327-.097-.123-.018-.26-.027-.404-.027h-.396v-.529zM61.527 6.975v1.334c0 .306-.005.58-.016.822l-.039.768.016.015.291-.578.293-.578.934-1.785h1.088v3.771h-.794v-1.334c0-.279.008-.558.02-.838l.042-.846h-.039c-.087.233-.176.434-.265.606l-.263.528-.48.931-.501.954h-1.088v-3.77h.801zM68.529 6.975v.69h-1.151v3.081h-.826v-3.081h-1.144v-.69zM72.013 8.466c0-.295-.071-.534-.213-.718s-.349-.276-.618-.276c-.245 0-.451.093-.622.279s-.269.424-.296.714h1.749zm.802.216l-.008.206-.023.174h-2.521c.011.357.124.633.338.826s.5.291.852.291c.368 0 .708-.059 1.019-.178l.132.582c-.359.155-.78.233-1.269.233-.294 0-.559-.046-.792-.136s-.431-.218-.592-.384c-.16-.166-.284-.365-.37-.598-.084-.233-.127-.494-.127-.783s.043-.558.127-.803c.086-.246.207-.459.362-.64.156-.182.345-.323.564-.427.221-.103.467-.155.736-.155.238 0 .454.042.65.128.194.085.36.206.496.365.138.158.243.347.315.566.074.219.11.464.11.733zM77.009 10.18l.26.023.246.008.35-.023s.229-.045.327-.089c.099-.043.177-.102.237-.178s.091-.174.091-.297c0-.216-.097-.365-.288-.447-.192-.082-.451-.123-.779-.123h-.444v1.126zm0-1.668h.427l.37-.027.307-.085c.089-.039.156-.09.207-.155.049-.065.074-.143.074-.237 0-.17-.071-.296-.215-.376-.143-.08-.367-.12-.672-.12l-.23.008-.268.023v.969zm-.809-1.506c.151-.026.342-.046.575-.062s.472-.023.716-.023c.155 0 .33.01.525.027s.381.059.556.124c.177.065.324.162.444.291s.18.305.18.527c0 .114-.022.217-.063.306-.043.09-.097.17-.168.237l-.241.166c-.091.044-.184.077-.284.097l.008.023c.274.046.498.145.669.295s.257.357.257.621-.074.474-.217.629c-.146.155-.324.272-.537.35s-.437.127-.674.148c-.235.02-.447.031-.633.031l-.611-.016-.501-.031v-3.74z"/></svg>
